<svg xmlns="http://www.w3.org/2000/svg" xmlns:xlink="http://www.w3.org/1999/xlink" width="2304" zoomAndPan="magnify" viewBox="0 0 1728 863.999991" height="1152" preserveAspectRatio="xMidYMid meet" version="1.0"><defs><g/></defs><g fill="#ffffff" fill-opacity="1"><g transform="translate(212.638305, 588.494816)"><g><path d="M 94.1875 12.75 C 92.820312 1.507812 91.796875 -10.757812 91.109375 -24.0625 C 90.421875 -37.363281 90.078125 -49.769531 90.078125 -61.28125 C 90.078125 -79.65625 90.691406 -97.273438 91.921875 -114.140625 C 93.160156 -131.003906 94.671875 -148.691406 96.453125 -167.203125 C 98.234375 -185.710938 100.21875 -205.863281 102.40625 -227.65625 C 104.601562 -249.457031 106.523438 -274.617188 108.171875 -303.140625 C 111.734375 -303.140625 116.875 -302.109375 123.59375 -300.046875 C 130.3125 -297.992188 137.097656 -295.59375 143.953125 -292.84375 C 150.816406 -290.101562 156.851562 -287.296875 162.0625 -284.421875 C 167.269531 -281.546875 170.285156 -279.144531 171.109375 -277.21875 C 166.441406 -266.53125 162.257812 -252.476562 158.5625 -235.0625 C 154.863281 -217.65625 151.78125 -198.664062 149.3125 -178.09375 C 146.84375 -157.53125 144.921875 -136.414062 143.546875 -114.75 C 142.171875 -93.09375 141.484375 -72.800781 141.484375 -53.875 C 141.484375 -45.101562 141.617188 -36.46875 141.890625 -27.96875 C 142.171875 -19.46875 142.585938 -11.65625 143.140625 -4.53125 C 148.898438 -13.03125 155.546875 -25.160156 163.078125 -40.921875 C 170.617188 -56.691406 178.429688 -74.3125 186.515625 -93.78125 C 194.609375 -113.25 202.703125 -133.609375 210.796875 -154.859375 C 218.890625 -176.109375 226.363281 -196.398438 233.21875 -215.734375 C 240.070312 -235.066406 245.894531 -252.476562 250.6875 -267.96875 C 255.488281 -283.457031 258.847656 -295.179688 260.765625 -303.140625 C 264.335938 -303.140625 269.617188 -302.109375 276.609375 -300.046875 C 283.597656 -297.992188 290.453125 -295.59375 297.171875 -292.84375 C 303.890625 -290.101562 309.851562 -287.296875 315.0625 -284.421875 C 320.269531 -281.546875 323.148438 -279.144531 323.703125 -277.21875 C 319.035156 -266.53125 314.851562 -252.476562 311.15625 -235.0625 C 307.457031 -217.65625 304.375 -198.664062 301.90625 -178.09375 C 299.4375 -157.53125 297.515625 -136.414062 296.140625 -114.75 C 294.773438 -93.09375 294.09375 -72.800781 294.09375 -53.875 C 294.09375 -45.925781 294.160156 -38.046875 294.296875 -30.234375 C 294.429688 -22.421875 294.773438 -15.359375 295.328125 -9.046875 C 304.097656 -31.804688 313.210938 -54.359375 322.671875 -76.703125 C 332.128906 -99.054688 341.519531 -120.445312 350.84375 -140.875 C 360.164062 -161.300781 369.210938 -180.359375 377.984375 -198.046875 C 386.765625 -215.734375 394.859375 -231.5 402.265625 -245.34375 C 409.671875 -259.195312 416.113281 -270.644531 421.59375 -279.6875 C 427.082031 -288.738281 431.332031 -294.773438 434.34375 -297.796875 C 440.65625 -296.972656 447.164062 -294.707031 453.875 -291 C 460.59375 -287.300781 466.5625 -282.570312 471.78125 -276.8125 C 463.820312 -270.507812 454.769531 -260.160156 444.625 -245.765625 C 434.476562 -231.367188 424.054688 -214.707031 413.359375 -195.78125 C 402.671875 -176.863281 391.910156 -156.707031 381.078125 -135.3125 C 370.242188 -113.925781 360.164062 -93.085938 350.84375 -72.796875 C 341.519531 -52.503906 333.222656 -33.582031 325.953125 -16.03125 C 318.691406 1.507812 313.144531 15.628906 309.3125 26.328125 C 302.175781 29.617188 295.179688 31.265625 288.328125 31.265625 C 279.554688 30.160156 271.257812 27.960938 263.4375 24.671875 C 255.625 21.390625 250.070312 17.414062 246.78125 12.75 C 245.957031 8.363281 245.269531 3.222656 244.71875 -2.671875 C 244.175781 -8.566406 243.765625 -14.394531 243.484375 -20.15625 C 243.210938 -25.914062 243.007812 -31.46875 242.875 -36.8125 C 242.738281 -42.15625 242.671875 -46.75 242.671875 -50.59375 C 242.671875 -75 243.628906 -99.882812 245.546875 -125.25 C 247.472656 -150.613281 249.804688 -177.828125 252.546875 -206.890625 C 246.234375 -188.242188 239.238281 -168.222656 231.5625 -146.828125 C 223.882812 -125.441406 215.863281 -104.257812 207.5 -83.28125 C 199.144531 -62.3125 190.644531 -42.296875 182 -23.234375 C 173.363281 -4.179688 164.929688 12.335938 156.703125 26.328125 C 149.578125 29.617188 142.585938 31.265625 135.734375 31.265625 C 126.960938 30.160156 118.664062 27.960938 110.84375 24.671875 C 103.03125 21.390625 97.476562 17.414062 94.1875 12.75 Z M 94.1875 12.75 "/></g></g></g><g fill="#ffffff" fill-opacity="1"><g transform="translate(604.614124, 588.494816)"><g><path d="M 187.140625 -170.28125 C 186.046875 -153.28125 183.03125 -138.675781 178.09375 -126.46875 C 173.15625 -114.269531 166.09375 -103.578125 156.90625 -94.390625 C 147.726562 -85.210938 136.554688 -76.921875 123.390625 -69.515625 C 110.234375 -62.109375 94.878906 -54.976562 77.328125 -48.125 C 77.328125 -46.476562 77.257812 -44.765625 77.125 -42.984375 C 76.988281 -41.203125 76.921875 -39.347656 76.921875 -37.421875 C 76.921875 -33.859375 77.191406 -30.15625 77.734375 -26.3125 C 78.285156 -22.476562 79.242188 -18.914062 80.609375 -15.625 C 81.984375 -12.332031 83.90625 -9.660156 86.375 -7.609375 C 88.84375 -5.554688 91.992188 -4.53125 95.828125 -4.53125 C 103.234375 -4.53125 110.5 -6.171875 117.625 -9.453125 C 124.757812 -12.742188 131.546875 -16.789062 137.984375 -21.59375 C 144.429688 -26.394531 150.46875 -31.601562 156.09375 -37.21875 C 161.71875 -42.84375 166.722656 -47.984375 171.109375 -52.640625 C 173.847656 -50.179688 176.175781 -47.851562 178.09375 -45.65625 C 165.757812 -29.207031 152.253906 -15.566406 137.578125 -4.734375 C 122.910156 6.097656 108.992188 13.023438 95.828125 16.046875 C 76.910156 13.847656 62.171875 6.925781 51.609375 -4.71875 C 41.054688 -16.375 35.78125 -30.429688 35.78125 -46.890625 C 35.78125 -58.128906 37.359375 -69.578125 40.515625 -81.234375 C 43.671875 -92.890625 48.054688 -104.128906 53.671875 -114.953125 C 59.296875 -125.785156 65.878906 -136 73.421875 -145.59375 C 80.960938 -155.195312 89.050781 -163.5625 97.6875 -170.6875 C 106.320312 -177.820312 115.234375 -183.445312 124.421875 -187.5625 C 133.609375 -191.675781 142.726562 -193.734375 151.78125 -193.734375 C 164.382812 -192.085938 176.171875 -184.269531 187.140625 -170.28125 Z M 158.765625 -156.703125 C 151.359375 -155.609375 143.679688 -152.59375 135.734375 -147.65625 C 127.785156 -142.71875 120.3125 -136.132812 113.3125 -127.90625 C 106.320312 -119.6875 99.945312 -110.09375 94.1875 -99.125 C 88.425781 -88.15625 83.90625 -76.363281 80.625 -63.75 C 102.550781 -74.71875 120.78125 -88.222656 135.3125 -104.265625 C 149.851562 -120.304688 157.671875 -137.785156 158.765625 -156.703125 Z M 158.765625 -156.703125 "/></g></g></g><g fill="#ffffff" fill-opacity="1"><g transform="translate(770.782274, 588.494816)"><g><path d="M 77.734375 2.875 C 90.347656 -5.625 102.6875 -16.519531 114.75 -29.8125 C 126.820312 -43.113281 137.789062 -57.507812 147.65625 -73 C 157.53125 -88.5 165.894531 -104.609375 172.75 -121.328125 C 179.601562 -138.054688 184.265625 -154.097656 186.734375 -169.453125 C 186.734375 -172.742188 184.953125 -174.941406 181.390625 -176.046875 C 177.546875 -176.046875 172.265625 -172.6875 165.546875 -165.96875 C 158.828125 -159.25 151.421875 -150.675781 143.328125 -140.25 C 135.242188 -129.832031 127.019531 -118.179688 118.65625 -105.296875 C 110.300781 -92.410156 102.691406 -79.59375 95.828125 -66.84375 C 88.972656 -54.09375 83.144531 -42.160156 78.34375 -31.046875 C 73.550781 -19.941406 70.878906 -10.960938 70.328125 -4.109375 C 67.585938 -4.109375 65.257812 -6.851562 63.34375 -12.34375 C 62.789062 -13.707031 61.828125 -15.144531 60.453125 -16.65625 C 59.085938 -18.164062 56.894531 -20.015625 53.875 -22.203125 C 52.507812 -23.304688 51.140625 -24.609375 49.765625 -26.109375 C 48.398438 -27.617188 47.441406 -28.925781 46.890625 -30.03125 C 45.796875 -32.21875 45.25 -35.78125 45.25 -40.71875 C 45.25 -56.894531 47.300781 -75.128906 51.40625 -95.421875 C 55.519531 -115.710938 60.9375 -136.414062 67.65625 -157.53125 C 74.375 -178.644531 82.257812 -199.414062 91.3125 -219.84375 C 100.363281 -240.269531 109.753906 -258.984375 119.484375 -275.984375 C 129.222656 -292.984375 139.023438 -307.378906 148.890625 -319.171875 C 158.765625 -330.960938 168.085938 -338.78125 176.859375 -342.625 C 179.609375 -341.800781 182.898438 -340.425781 186.734375 -338.5 C 190.578125 -336.582031 194.414062 -334.390625 198.25 -331.921875 C 202.09375 -329.460938 205.726562 -327 209.15625 -324.53125 C 212.582031 -322.0625 215.117188 -319.863281 216.765625 -317.9375 C 186.597656 -293.539062 160.476562 -262.210938 138.40625 -223.953125 C 116.332031 -185.703125 98.300781 -140.53125 84.3125 -88.4375 C 91.988281 -102.695312 100.625 -116.472656 110.21875 -129.765625 C 119.820312 -143.066406 129.351562 -154.789062 138.8125 -164.9375 C 148.28125 -175.082031 157.332031 -183.171875 165.96875 -189.203125 C 174.601562 -195.234375 181.800781 -198.25 187.5625 -198.25 C 191.945312 -197.15625 196.195312 -195.234375 200.3125 -192.484375 C 204.425781 -189.742188 208.125 -186.382812 211.40625 -182.40625 C 214.695312 -178.4375 217.441406 -174.1875 219.640625 -169.65625 C 221.835938 -165.132812 223.207031 -160.40625 223.75 -155.46875 C 223.476562 -143.957031 221.488281 -131.6875 217.78125 -118.65625 C 214.082031 -105.632812 209.148438 -92.816406 202.984375 -80.203125 C 196.816406 -67.585938 189.820312 -55.519531 182 -44 C 174.1875 -32.488281 165.960938 -22.414062 157.328125 -13.78125 C 148.691406 -5.144531 140.050781 1.773438 131.40625 6.984375 C 122.769531 12.203125 114.613281 14.8125 106.9375 14.8125 C 103.644531 14.8125 100.285156 14.46875 96.859375 13.78125 C 93.429688 13.09375 90.273438 12.128906 87.390625 10.890625 C 84.515625 9.660156 82.1875 8.359375 80.40625 6.984375 C 78.625 5.617188 77.734375 4.25 77.734375 2.875 Z M 77.734375 2.875 "/></g></g></g><g fill="#ffffff" fill-opacity="1"><g transform="translate(964.919329, 588.494816)"><g><path d="M 181.796875 -163.703125 C 181.523438 -158.492188 180.632812 -153.078125 179.125 -147.453125 C 177.613281 -141.835938 175.757812 -136.765625 173.5625 -132.234375 C 171.375 -127.710938 169.046875 -123.941406 166.578125 -120.921875 C 164.109375 -117.910156 161.78125 -116.40625 159.59375 -116.40625 C 156.570312 -116.675781 154.789062 -118.734375 154.25 -122.578125 C 154.25 -123.398438 154.585938 -124.703125 155.265625 -126.484375 C 155.953125 -128.265625 156.707031 -130.25 157.53125 -132.4375 C 158.351562 -134.632812 159.109375 -136.828125 159.796875 -139.015625 C 160.484375 -141.210938 160.828125 -143.132812 160.828125 -144.78125 C 160.828125 -148.625 159.929688 -151.847656 158.140625 -154.453125 C 156.359375 -157.054688 153.960938 -158.359375 150.953125 -158.359375 C 139.984375 -158.359375 131.617188 -151.5 125.859375 -137.78125 C 120.097656 -124.070312 117.21875 -103.921875 117.21875 -77.328125 C 117.21875 -74.585938 117.359375 -72.941406 117.640625 -72.390625 C 123.390625 -72.660156 128.523438 -72.863281 133.046875 -73 C 137.578125 -73.144531 142.035156 -73.21875 146.421875 -73.21875 C 146.703125 -72.664062 146.84375 -71.566406 146.84375 -69.921875 C 146.84375 -67.453125 146.289062 -65.671875 145.1875 -64.578125 C 138.882812 -63.203125 133.878906 -62.035156 130.171875 -61.078125 C 126.472656 -60.117188 123.664062 -59.226562 121.75 -58.40625 C 119.832031 -57.582031 118.664062 -56.691406 118.25 -55.734375 C 117.84375 -54.773438 117.640625 -53.472656 117.640625 -51.828125 C 117.640625 -49.628906 117.707031 -47.429688 117.84375 -45.234375 C 117.976562 -43.046875 118.046875 -40.304688 118.046875 -37.015625 C 118.046875 -13.984375 111.804688 4.519531 99.328125 18.5 C 86.859375 32.488281 69.515625 40.582031 47.296875 42.78125 C 43.460938 42.5 39.488281 41.398438 35.375 39.484375 C 31.257812 37.566406 27.347656 35.097656 23.640625 32.078125 C 19.941406 29.066406 16.722656 25.707031 13.984375 22 C 11.242188 18.300781 9.320312 14.53125 8.21875 10.6875 C 8.21875 0.269531 10.410156 -9.664062 14.796875 -19.125 C 19.191406 -28.582031 25.160156 -36.941406 32.703125 -44.203125 C 40.242188 -51.472656 49.15625 -57.367188 59.4375 -61.890625 C 69.71875 -66.421875 80.890625 -69.097656 92.953125 -69.921875 C 92.953125 -76.773438 92.265625 -83.492188 90.890625 -90.078125 C 89.523438 -96.660156 88.085938 -103.035156 86.578125 -109.203125 C 85.066406 -115.367188 83.625 -121.398438 82.25 -127.296875 C 80.882812 -133.191406 80.203125 -139.019531 80.203125 -144.78125 C 80.203125 -152.1875 81.707031 -159.519531 84.71875 -166.78125 C 87.738281 -174.050781 91.71875 -180.769531 96.65625 -186.9375 C 101.59375 -193.113281 107.351562 -198.394531 113.9375 -202.78125 C 120.519531 -207.164062 127.375 -210.179688 134.5 -211.828125 C 137.519531 -211.003906 141.566406 -208.601562 146.640625 -204.625 C 151.710938 -200.644531 156.710938 -196.1875 161.640625 -191.25 C 166.578125 -186.320312 170.960938 -181.320312 174.796875 -176.25 C 178.640625 -171.175781 180.972656 -166.992188 181.796875 -163.703125 Z M 46.0625 23.859375 C 52.644531 21.117188 58.882812 17.140625 64.78125 11.921875 C 70.675781 6.710938 75.816406 0.820312 80.203125 -5.75 C 84.585938 -12.332031 88.082031 -19.328125 90.6875 -26.734375 C 93.300781 -34.140625 94.609375 -41.40625 94.609375 -48.53125 C 89.117188 -47.707031 83.082031 -45.171875 76.5 -40.921875 C 69.914062 -36.671875 63.742188 -31.597656 57.984375 -25.703125 C 52.234375 -19.804688 47.4375 -13.703125 43.59375 -7.390625 C 39.757812 -1.085938 37.84375 4.390625 37.84375 9.046875 C 37.84375 15.078125 40.582031 20.015625 46.0625 23.859375 Z M 46.0625 23.859375 "/></g></g></g><g fill="#ffffff" fill-opacity="1"><g transform="translate(1107.231651, 588.494816)"><g><path d="M 40.3125 -27.5625 C 40.3125 -30.03125 40.515625 -33.113281 40.921875 -36.8125 C 41.335938 -40.507812 42.09375 -45.441406 43.1875 -51.609375 C 44.28125 -57.785156 45.71875 -65.257812 47.5 -74.03125 C 49.289062 -82.8125 51.554688 -93.367188 54.296875 -105.703125 C 54.835938 -108.453125 56.066406 -112.84375 57.984375 -118.875 C 59.910156 -124.90625 62.445312 -131.28125 65.59375 -138 C 68.75 -144.71875 72.585938 -151.226562 77.109375 -157.53125 C 81.640625 -163.84375 87.0625 -168.503906 93.375 -171.515625 C 98.03125 -170.421875 104.195312 -167.609375 111.875 -163.078125 C 119.550781 -158.554688 126.132812 -152.320312 131.625 -144.375 C 125.3125 -137.238281 120.03125 -130.101562 115.78125 -122.96875 C 111.53125 -115.84375 107.691406 -108.441406 104.265625 -100.765625 C 100.835938 -93.085938 97.679688 -85.132812 94.796875 -76.90625 C 91.921875 -68.6875 88.703125 -60.050781 85.140625 -51 C 82.128906 -43.320312 79.390625 -35.4375 76.921875 -27.34375 C 74.453125 -19.257812 73.078125 -12.203125 72.796875 -6.171875 C 72.796875 -1.234375 72.726562 2.257812 72.59375 4.3125 C 72.457031 6.375 71.703125 7.40625 70.328125 7.40625 C 69.234375 7.40625 67.039062 6.71875 63.75 5.34375 C 60.457031 3.976562 57.097656 1.859375 53.671875 -1.015625 C 50.242188 -3.898438 47.160156 -7.535156 44.421875 -11.921875 C 41.679688 -16.316406 40.3125 -21.53125 40.3125 -27.5625 Z M 118.875 -206.0625 C 118.875 -207.707031 119.285156 -210.175781 120.109375 -213.46875 C 118.734375 -214.84375 117.566406 -216.898438 116.609375 -219.640625 C 115.648438 -222.378906 115.171875 -224.847656 115.171875 -227.046875 C 115.171875 -229.515625 115.507812 -232.875 116.1875 -237.125 C 116.875 -241.375 117.765625 -245.960938 118.859375 -250.890625 C 119.960938 -255.828125 121.335938 -260.96875 122.984375 -266.3125 C 124.628906 -271.664062 126.273438 -276.535156 127.921875 -280.921875 C 131.210938 -280.921875 135.253906 -280.03125 140.046875 -278.25 C 144.847656 -276.46875 149.71875 -274.132812 154.65625 -271.25 C 159.59375 -268.375 164.113281 -265.222656 168.21875 -261.796875 C 172.332031 -258.367188 175.488281 -255.148438 177.6875 -252.140625 C 174.664062 -249.117188 170.6875 -244.929688 165.75 -239.578125 C 160.820312 -234.234375 156.023438 -228.613281 151.359375 -222.71875 C 146.703125 -216.820312 142.453125 -211.269531 138.609375 -206.0625 C 134.773438 -200.851562 132.304688 -197.15625 131.203125 -194.96875 C 127.910156 -195.507812 125.03125 -196.945312 122.5625 -199.28125 C 120.101562 -201.613281 118.875 -203.875 118.875 -206.0625 Z M 118.875 -206.0625 "/></g></g></g><g fill="#ffffff" fill-opacity="1"><g transform="translate(1204.300154, 588.494816)"><g><path d="M 64.171875 -157.53125 C 62.796875 -159.175781 61.554688 -162.671875 60.453125 -168.015625 C 59.359375 -173.367188 58.8125 -177.960938 58.8125 -181.796875 C 65.945312 -181.253906 72.800781 -180.773438 79.375 -180.359375 C 85.957031 -179.953125 91.992188 -179.609375 97.484375 -179.328125 C 101.597656 -187.554688 106.050781 -195.710938 110.84375 -203.796875 C 115.644531 -211.890625 120.304688 -219.296875 124.828125 -226.015625 C 129.359375 -232.734375 133.609375 -238.421875 137.578125 -243.078125 C 141.554688 -247.742188 144.644531 -250.765625 146.84375 -252.140625 C 149.582031 -252.140625 153.078125 -251.65625 157.328125 -250.6875 C 161.578125 -249.726562 165.894531 -248.492188 170.28125 -246.984375 C 174.664062 -245.484375 178.640625 -243.910156 182.203125 -242.265625 C 185.773438 -240.617188 188.242188 -238.972656 189.609375 -237.328125 C 181.390625 -226.910156 174.332031 -217.242188 168.4375 -208.328125 C 162.539062 -199.421875 156.164062 -189.207031 149.3125 -177.6875 C 154.789062 -177.6875 160.335938 -177.820312 165.953125 -178.09375 C 171.578125 -178.375 177.269531 -178.785156 183.03125 -179.328125 C 184.40625 -177.960938 185.503906 -176.25 186.328125 -174.1875 C 187.148438 -172.132812 187.5625 -170.007812 187.5625 -167.8125 C 174.125 -162.875 157.804688 -160.132812 138.609375 -159.59375 C 131.753906 -146.425781 125.648438 -133.328125 120.296875 -120.296875 C 114.953125 -107.273438 110.429688 -94.734375 106.734375 -82.671875 C 103.035156 -70.609375 100.15625 -59.226562 98.09375 -48.53125 C 96.039062 -37.84375 95.015625 -28.25 95.015625 -19.75 C 95.015625 -7.675781 99.539062 -0.957031 108.59375 0.40625 C 116.8125 -0.6875 124.625 -2.738281 132.03125 -5.75 C 139.4375 -8.769531 146.019531 -12.613281 151.78125 -17.28125 C 153.425781 -14.8125 154.382812 -12.753906 154.65625 -11.109375 C 153.007812 -8.640625 150.195312 -5.757812 146.21875 -2.46875 C 142.238281 0.820312 137.914062 4.039062 133.25 7.1875 C 128.59375 10.34375 124.070312 13.019531 119.6875 15.21875 C 115.300781 17.414062 112.015625 18.648438 109.828125 18.921875 C 102.960938 18.648438 96.101562 17.140625 89.25 14.390625 C 82.394531 11.648438 76.15625 8.222656 70.53125 4.109375 C 64.914062 -0.00390625 60.328125 -4.597656 56.765625 -9.671875 C 53.203125 -14.742188 51.421875 -19.742188 51.421875 -24.671875 C 51.421875 -31.253906 52.3125 -39.550781 54.09375 -49.5625 C 55.875 -59.570312 58.40625 -70.472656 61.6875 -82.265625 C 64.976562 -94.054688 68.816406 -106.394531 73.203125 -119.28125 C 77.597656 -132.164062 82.398438 -144.914062 87.609375 -157.53125 Z M 64.171875 -157.53125 "/></g></g></g><g fill="#ffffff" fill-opacity="1"><g transform="translate(1349.080312, 588.494816)"><g><path d="M 187.140625 -170.28125 C 186.046875 -153.28125 183.03125 -138.675781 178.09375 -126.46875 C 173.15625 -114.269531 166.09375 -103.578125 156.90625 -94.390625 C 147.726562 -85.210938 136.554688 -76.921875 123.390625 -69.515625 C 110.234375 -62.109375 94.878906 -54.976562 77.328125 -48.125 C 77.328125 -46.476562 77.257812 -44.765625 77.125 -42.984375 C 76.988281 -41.203125 76.921875 -39.347656 76.921875 -37.421875 C 76.921875 -33.859375 77.191406 -30.15625 77.734375 -26.3125 C 78.285156 -22.476562 79.242188 -18.914062 80.609375 -15.625 C 81.984375 -12.332031 83.90625 -9.660156 86.375 -7.609375 C 88.84375 -5.554688 91.992188 -4.53125 95.828125 -4.53125 C 103.234375 -4.53125 110.5 -6.171875 117.625 -9.453125 C 124.757812 -12.742188 131.546875 -16.789062 137.984375 -21.59375 C 144.429688 -26.394531 150.46875 -31.601562 156.09375 -37.21875 C 161.71875 -42.84375 166.722656 -47.984375 171.109375 -52.640625 C 173.847656 -50.179688 176.175781 -47.851562 178.09375 -45.65625 C 165.757812 -29.207031 152.253906 -15.566406 137.578125 -4.734375 C 122.910156 6.097656 108.992188 13.023438 95.828125 16.046875 C 76.910156 13.847656 62.171875 6.925781 51.609375 -4.71875 C 41.054688 -16.375 35.78125 -30.429688 35.78125 -46.890625 C 35.78125 -58.128906 37.359375 -69.578125 40.515625 -81.234375 C 43.671875 -92.890625 48.054688 -104.128906 53.671875 -114.953125 C 59.296875 -125.785156 65.878906 -136 73.421875 -145.59375 C 80.960938 -155.195312 89.050781 -163.5625 97.6875 -170.6875 C 106.320312 -177.820312 115.234375 -183.445312 124.421875 -187.5625 C 133.609375 -191.675781 142.726562 -193.734375 151.78125 -193.734375 C 164.382812 -192.085938 176.171875 -184.269531 187.140625 -170.28125 Z M 158.765625 -156.703125 C 151.359375 -155.609375 143.679688 -152.59375 135.734375 -147.65625 C 127.785156 -142.71875 120.3125 -136.132812 113.3125 -127.90625 C 106.320312 -119.6875 99.945312 -110.09375 94.1875 -99.125 C 88.425781 -88.15625 83.90625 -76.363281 80.625 -63.75 C 102.550781 -74.71875 120.78125 -88.222656 135.3125 -104.265625 C 149.851562 -120.304688 157.671875 -137.785156 158.765625 -156.703125 Z M 158.765625 -156.703125 "/></g></g></g></svg>