<svg xmlns="http://www.w3.org/2000/svg" xmlns:xlink="http://www.w3.org/1999/xlink" width="1920" zoomAndPan="magnify" viewBox="0 0 1440 809.999993" height="1080" preserveAspectRatio="xMidYMid meet" version="1.0"><defs><g/></defs><g fill="#ffffff" fill-opacity="1"><g transform="translate(-101.479384, 520.444081)"><g><path d="M 108.875 14.734375 C 107.289062 1.742188 106.101562 -12.4375 105.3125 -27.8125 C 104.519531 -43.1875 104.125 -57.53125 104.125 -70.84375 C 104.125 -92.082031 104.835938 -112.445312 106.265625 -131.9375 C 107.691406 -151.425781 109.429688 -171.867188 111.484375 -193.265625 C 113.546875 -214.660156 115.84375 -237.957031 118.375 -263.15625 C 120.914062 -288.363281 123.140625 -317.445312 125.046875 -350.40625 C 129.160156 -350.40625 135.097656 -349.21875 142.859375 -346.84375 C 150.628906 -344.46875 158.476562 -341.691406 166.40625 -338.515625 C 174.332031 -335.347656 181.304688 -332.097656 187.328125 -328.765625 C 193.347656 -325.441406 196.832031 -322.671875 197.78125 -320.453125 C 192.394531 -308.085938 187.5625 -291.84375 183.28125 -271.71875 C 179.007812 -251.59375 175.445312 -229.644531 172.59375 -205.875 C 169.738281 -182.101562 167.519531 -157.695312 165.9375 -132.65625 C 164.351562 -107.613281 163.5625 -84.15625 163.5625 -62.28125 C 163.5625 -52.132812 163.71875 -42.148438 164.03125 -32.328125 C 164.34375 -22.503906 164.816406 -13.472656 165.453125 -5.234375 C 172.109375 -15.054688 179.796875 -29.078125 188.515625 -47.296875 C 197.234375 -65.523438 206.265625 -85.890625 215.609375 -108.390625 C 224.960938 -130.898438 234.316406 -154.4375 243.671875 -179 C 253.023438 -203.570312 261.660156 -227.03125 269.578125 -249.375 C 277.503906 -271.71875 284.238281 -291.84375 289.78125 -309.75 C 295.332031 -327.664062 299.21875 -341.21875 301.4375 -350.40625 C 305.5625 -350.40625 311.660156 -349.21875 319.734375 -346.84375 C 327.816406 -344.46875 335.738281 -341.691406 343.5 -338.515625 C 351.269531 -335.347656 358.164062 -332.097656 364.1875 -328.765625 C 370.21875 -325.441406 373.550781 -322.671875 374.1875 -320.453125 C 368.789062 -308.085938 363.953125 -291.84375 359.671875 -271.71875 C 355.398438 -251.59375 351.835938 -229.644531 348.984375 -205.875 C 346.128906 -182.101562 343.910156 -157.695312 342.328125 -132.65625 C 340.742188 -107.613281 339.953125 -84.15625 339.953125 -62.28125 C 339.953125 -53.09375 340.03125 -43.976562 340.1875 -34.9375 C 340.34375 -25.90625 340.738281 -17.742188 341.375 -10.453125 C 351.519531 -36.765625 362.054688 -62.835938 372.984375 -88.671875 C 383.921875 -114.503906 394.78125 -139.226562 405.5625 -162.84375 C 416.34375 -186.457031 426.800781 -208.484375 436.9375 -228.921875 C 447.082031 -249.367188 456.429688 -267.597656 464.984375 -283.609375 C 473.546875 -299.617188 480.992188 -312.851562 487.328125 -323.3125 C 493.671875 -333.769531 498.585938 -340.742188 502.078125 -344.234375 C 509.367188 -343.273438 516.894531 -340.65625 524.65625 -336.375 C 532.425781 -332.101562 539.320312 -326.640625 545.34375 -319.984375 C 536.15625 -312.691406 525.695312 -300.722656 513.96875 -284.078125 C 502.238281 -267.441406 490.191406 -248.1875 477.828125 -226.3125 C 465.460938 -204.445312 453.019531 -181.148438 440.5 -156.421875 C 427.988281 -131.703125 416.34375 -107.613281 405.5625 -84.15625 C 394.78125 -60.695312 385.191406 -38.820312 376.796875 -18.53125 C 368.398438 1.75 361.984375 18.066406 357.546875 30.421875 C 349.296875 34.234375 341.210938 36.140625 333.296875 36.140625 C 323.148438 34.867188 313.5625 32.332031 304.53125 28.53125 C 295.5 24.726562 289.078125 20.128906 285.265625 14.734375 C 284.316406 9.660156 283.523438 3.71875 282.890625 -3.09375 C 282.253906 -9.90625 281.78125 -16.640625 281.46875 -23.296875 C 281.15625 -29.953125 280.914062 -36.367188 280.75 -42.546875 C 280.59375 -48.734375 280.515625 -54.046875 280.515625 -58.484375 C 280.515625 -86.691406 281.625 -115.453125 283.84375 -144.765625 C 286.0625 -174.085938 288.753906 -205.550781 291.921875 -239.15625 C 284.640625 -217.601562 276.5625 -194.460938 267.6875 -169.734375 C 258.8125 -145.015625 249.535156 -120.53125 239.859375 -96.28125 C 230.191406 -72.03125 220.363281 -48.890625 210.375 -26.859375 C 200.394531 -4.828125 190.648438 14.265625 181.140625 30.421875 C 172.898438 34.234375 164.820312 36.140625 156.90625 36.140625 C 146.757812 34.867188 137.164062 32.332031 128.125 28.53125 C 119.09375 24.726562 112.675781 20.128906 108.875 14.734375 Z M 108.875 14.734375 "/></g></g></g><g fill="#ffffff" fill-opacity="1"><g transform="translate(351.628443, 520.444081)"><g><path d="M 216.328125 -196.84375 C 215.054688 -177.1875 211.566406 -160.304688 205.859375 -146.203125 C 200.160156 -132.097656 192 -119.734375 181.375 -109.109375 C 170.757812 -98.492188 157.84375 -88.90625 142.625 -80.34375 C 127.414062 -71.789062 109.671875 -63.550781 89.390625 -55.625 C 89.390625 -53.726562 89.304688 -51.75 89.140625 -49.6875 C 88.984375 -47.625 88.90625 -45.484375 88.90625 -43.265625 C 88.90625 -39.140625 89.222656 -34.859375 89.859375 -30.421875 C 90.492188 -25.984375 91.601562 -21.863281 93.1875 -18.0625 C 94.769531 -14.257812 96.988281 -11.171875 99.84375 -8.796875 C 102.695312 -6.421875 106.34375 -5.234375 110.78125 -5.234375 C 119.34375 -5.234375 127.742188 -7.132812 135.984375 -10.9375 C 144.222656 -14.738281 152.066406 -19.410156 159.515625 -24.953125 C 166.960938 -30.503906 173.9375 -36.53125 180.4375 -43.03125 C 186.9375 -49.53125 192.71875 -55.472656 197.78125 -60.859375 C 200.957031 -58.003906 203.65625 -55.3125 205.875 -52.78125 C 191.601562 -33.757812 175.988281 -17.988281 159.03125 -5.46875 C 142.082031 7.050781 126 15.054688 110.78125 18.546875 C 88.90625 16.003906 71.863281 8 59.65625 -5.46875 C 47.457031 -18.9375 41.359375 -35.179688 41.359375 -54.203125 C 41.359375 -67.191406 43.179688 -80.421875 46.828125 -93.890625 C 50.472656 -107.367188 55.546875 -120.367188 62.046875 -132.890625 C 68.546875 -145.410156 76.148438 -157.21875 84.859375 -168.3125 C 93.578125 -179.40625 102.925781 -189.070312 112.90625 -197.3125 C 122.894531 -205.550781 133.195312 -212.046875 143.8125 -216.796875 C 154.4375 -221.554688 164.976562 -223.9375 175.4375 -223.9375 C 190.019531 -222.03125 203.648438 -213 216.328125 -196.84375 Z M 183.53125 -181.140625 C 174.96875 -179.878906 166.085938 -176.394531 156.890625 -170.6875 C 147.703125 -164.976562 139.066406 -157.367188 130.984375 -147.859375 C 122.898438 -138.359375 115.53125 -127.265625 108.875 -114.578125 C 102.21875 -101.898438 96.988281 -88.269531 93.1875 -73.6875 C 118.539062 -86.375 139.617188 -101.988281 156.421875 -120.53125 C 173.222656 -139.070312 182.257812 -159.273438 183.53125 -181.140625 Z M 183.53125 -181.140625 "/></g></g></g><g fill="#ffffff" fill-opacity="1"><g transform="translate(543.711931, 520.444081)"><g><path d="M 89.859375 3.328125 C 104.441406 -6.492188 118.707031 -19.09375 132.65625 -34.46875 C 146.601562 -49.84375 159.28125 -66.484375 170.6875 -84.390625 C 182.09375 -102.296875 191.757812 -120.914062 199.6875 -140.25 C 207.613281 -159.59375 213.003906 -178.140625 215.859375 -195.890625 C 215.859375 -199.691406 213.796875 -202.226562 209.671875 -203.5 C 205.234375 -203.5 199.128906 -199.613281 191.359375 -191.84375 C 183.597656 -184.082031 175.039062 -174.175781 165.6875 -162.125 C 156.34375 -150.082031 146.835938 -136.613281 137.171875 -121.71875 C 127.503906 -106.820312 118.707031 -92.003906 110.78125 -77.265625 C 102.851562 -62.523438 96.113281 -48.734375 90.5625 -35.890625 C 85.019531 -23.054688 81.929688 -12.675781 81.296875 -4.75 C 78.128906 -4.75 75.4375 -7.921875 73.21875 -14.265625 C 72.582031 -15.847656 71.472656 -17.507812 69.890625 -19.25 C 68.304688 -21 65.769531 -23.140625 62.28125 -25.671875 C 60.695312 -26.941406 59.113281 -28.445312 57.53125 -30.1875 C 55.945312 -31.9375 54.835938 -33.441406 54.203125 -34.703125 C 52.929688 -37.242188 52.296875 -41.363281 52.296875 -47.0625 C 52.296875 -65.769531 54.671875 -86.847656 59.421875 -110.296875 C 64.179688 -133.753906 70.441406 -157.6875 78.203125 -182.09375 C 85.972656 -206.5 95.085938 -230.507812 105.546875 -254.125 C 116.003906 -277.738281 126.859375 -299.367188 138.109375 -319.015625 C 149.367188 -338.671875 160.703125 -355.3125 172.109375 -368.9375 C 183.523438 -382.570312 194.300781 -391.609375 204.4375 -396.046875 C 207.613281 -395.097656 211.421875 -393.515625 215.859375 -391.296875 C 220.296875 -389.078125 224.734375 -386.539062 229.171875 -383.6875 C 233.609375 -380.832031 237.804688 -377.976562 241.765625 -375.125 C 245.734375 -372.28125 248.664062 -369.75 250.5625 -367.53125 C 215.695312 -339.3125 185.503906 -303.09375 159.984375 -258.875 C 134.472656 -214.664062 113.632812 -162.445312 97.46875 -102.21875 C 106.34375 -118.707031 116.328125 -134.632812 127.421875 -150 C 138.515625 -165.375 149.53125 -178.925781 160.46875 -190.65625 C 171.40625 -202.382812 181.863281 -211.734375 191.84375 -218.703125 C 201.832031 -225.679688 210.15625 -229.171875 216.8125 -229.171875 C 221.875 -227.898438 226.78125 -225.675781 231.53125 -222.5 C 236.289062 -219.332031 240.570312 -215.453125 244.375 -210.859375 C 248.1875 -206.265625 251.359375 -201.351562 253.890625 -196.125 C 256.429688 -190.894531 258.015625 -185.425781 258.640625 -179.71875 C 258.328125 -166.40625 256.03125 -152.21875 251.75 -137.15625 C 247.46875 -122.101562 241.757812 -107.285156 234.625 -92.703125 C 227.5 -78.128906 219.421875 -64.1875 210.390625 -50.875 C 201.359375 -37.5625 191.847656 -25.910156 181.859375 -15.921875 C 171.878906 -5.941406 161.894531 2.054688 151.90625 8.078125 C 141.925781 14.097656 132.5 17.109375 123.625 17.109375 C 119.8125 17.109375 115.925781 16.710938 111.96875 15.921875 C 108.007812 15.128906 104.363281 14.019531 101.03125 12.59375 C 97.707031 11.164062 95.015625 9.660156 92.953125 8.078125 C 90.890625 6.492188 89.859375 4.910156 89.859375 3.328125 Z M 89.859375 3.328125 "/></g></g></g><g fill="#ffffff" fill-opacity="1"><g transform="translate(768.126259, 520.444081)"><g><path d="M 210.15625 -189.234375 C 209.832031 -183.210938 208.796875 -176.953125 207.046875 -170.453125 C 205.304688 -163.953125 203.171875 -158.085938 200.640625 -152.859375 C 198.109375 -147.628906 195.414062 -143.269531 192.5625 -139.78125 C 189.707031 -136.289062 187.007812 -134.546875 184.46875 -134.546875 C 180.988281 -134.867188 178.929688 -137.25 178.296875 -141.6875 C 178.296875 -142.632812 178.691406 -144.140625 179.484375 -146.203125 C 180.273438 -148.265625 181.144531 -150.5625 182.09375 -153.09375 C 183.050781 -155.632812 183.925781 -158.171875 184.71875 -160.703125 C 185.507812 -163.234375 185.90625 -165.453125 185.90625 -167.359375 C 185.90625 -171.796875 184.875 -175.519531 182.8125 -178.53125 C 180.75 -181.539062 177.972656 -183.046875 174.484375 -183.046875 C 161.804688 -183.046875 152.140625 -175.117188 145.484375 -159.265625 C 138.828125 -143.421875 135.5 -120.128906 135.5 -89.390625 C 135.5 -86.210938 135.660156 -84.3125 135.984375 -83.6875 C 142.640625 -84 148.582031 -84.234375 153.8125 -84.390625 C 159.039062 -84.546875 164.191406 -84.625 169.265625 -84.625 C 169.578125 -84 169.734375 -82.734375 169.734375 -80.828125 C 169.734375 -77.972656 169.097656 -75.910156 167.828125 -74.640625 C 160.546875 -73.054688 154.765625 -71.707031 150.484375 -70.59375 C 146.203125 -69.488281 142.953125 -68.460938 140.734375 -67.515625 C 138.515625 -66.566406 137.164062 -65.535156 136.6875 -64.421875 C 136.21875 -63.316406 135.984375 -61.8125 135.984375 -59.90625 C 135.984375 -57.375 136.0625 -54.835938 136.21875 -52.296875 C 136.375 -49.765625 136.453125 -46.597656 136.453125 -42.796875 C 136.453125 -16.171875 129.238281 5.222656 114.8125 21.390625 C 100.394531 37.554688 80.347656 46.910156 54.671875 49.453125 C 50.234375 49.128906 45.632812 47.859375 40.875 45.640625 C 36.125 43.421875 31.609375 40.566406 27.328125 37.078125 C 23.054688 33.597656 19.332031 29.71875 16.15625 25.4375 C 12.988281 21.15625 10.773438 16.796875 9.515625 12.359375 C 9.515625 0.316406 12.046875 -11.171875 17.109375 -22.109375 C 22.179688 -33.046875 29.078125 -42.710938 37.796875 -51.109375 C 46.515625 -59.503906 56.816406 -66.316406 68.703125 -71.546875 C 80.585938 -76.785156 93.503906 -79.878906 107.453125 -80.828125 C 107.453125 -88.753906 106.660156 -96.519531 105.078125 -104.125 C 103.492188 -111.726562 101.828125 -119.097656 100.078125 -126.234375 C 98.335938 -133.367188 96.675781 -140.34375 95.09375 -147.15625 C 93.507812 -153.96875 92.71875 -160.703125 92.71875 -167.359375 C 92.71875 -175.921875 94.457031 -184.398438 97.9375 -192.796875 C 101.425781 -201.191406 106.023438 -208.957031 111.734375 -216.09375 C 117.441406 -223.226562 124.097656 -229.328125 131.703125 -234.390625 C 139.304688 -239.460938 147.226562 -242.953125 155.46875 -244.859375 C 158.957031 -243.910156 163.632812 -241.132812 169.5 -236.53125 C 175.363281 -231.9375 181.144531 -226.785156 186.84375 -221.078125 C 192.550781 -215.378906 197.625 -209.597656 202.0625 -203.734375 C 206.5 -197.867188 209.195312 -193.035156 210.15625 -189.234375 Z M 53.25 27.578125 C 60.851562 24.410156 68.0625 19.8125 74.875 13.78125 C 81.695312 7.757812 87.644531 0.945312 92.71875 -6.65625 C 97.789062 -14.257812 101.832031 -22.335938 104.84375 -30.890625 C 107.851562 -39.453125 109.359375 -47.859375 109.359375 -56.109375 C 103.015625 -55.148438 96.035156 -52.210938 88.421875 -47.296875 C 80.816406 -42.390625 73.6875 -36.53125 67.03125 -29.71875 C 60.375 -22.90625 54.828125 -15.851562 50.390625 -8.5625 C 45.953125 -1.269531 43.734375 5.066406 43.734375 10.453125 C 43.734375 17.429688 46.90625 23.140625 53.25 27.578125 Z M 53.25 27.578125 "/></g></g></g><g fill="#ffffff" fill-opacity="1"><g transform="translate(932.633426, 520.444081)"><g><path d="M 46.59375 -31.859375 C 46.59375 -34.710938 46.828125 -38.273438 47.296875 -42.546875 C 47.773438 -46.828125 48.648438 -52.53125 49.921875 -59.65625 C 51.191406 -66.789062 52.851562 -75.429688 54.90625 -85.578125 C 56.96875 -95.722656 59.585938 -107.925781 62.765625 -122.1875 C 63.390625 -125.363281 64.8125 -130.4375 67.03125 -137.40625 C 69.25 -144.375 72.179688 -151.738281 75.828125 -159.5 C 79.472656 -167.269531 83.910156 -174.800781 89.140625 -182.09375 C 94.378906 -189.382812 100.640625 -194.773438 107.921875 -198.265625 C 113.316406 -196.992188 120.453125 -193.742188 129.328125 -188.515625 C 138.203125 -183.285156 145.804688 -176.078125 152.140625 -166.890625 C 144.847656 -158.640625 138.742188 -150.394531 133.828125 -142.15625 C 128.921875 -133.914062 124.484375 -125.359375 120.515625 -116.484375 C 116.554688 -107.609375 112.910156 -98.414062 109.578125 -88.90625 C 106.253906 -79.394531 102.535156 -69.410156 98.421875 -58.953125 C 94.929688 -50.078125 91.757812 -40.960938 88.90625 -31.609375 C 86.050781 -22.265625 84.46875 -14.101562 84.15625 -7.125 C 84.15625 -1.425781 84.078125 2.609375 83.921875 4.984375 C 83.765625 7.367188 82.890625 8.5625 81.296875 8.5625 C 80.035156 8.5625 77.5 7.765625 73.6875 6.171875 C 69.882812 4.585938 66.003906 2.132812 62.046875 -1.1875 C 58.085938 -4.519531 54.519531 -8.71875 51.34375 -13.78125 C 48.175781 -18.851562 46.59375 -24.878906 46.59375 -31.859375 Z M 137.40625 -238.203125 C 137.40625 -240.109375 137.878906 -242.960938 138.828125 -246.765625 C 137.242188 -248.347656 135.894531 -250.722656 134.78125 -253.890625 C 133.675781 -257.054688 133.125 -259.910156 133.125 -262.453125 C 133.125 -265.304688 133.519531 -269.1875 134.3125 -274.09375 C 135.101562 -279.007812 136.132812 -284.316406 137.40625 -290.015625 C 138.675781 -295.722656 140.257812 -301.664062 142.15625 -307.84375 C 144.0625 -314.03125 145.960938 -319.660156 147.859375 -324.734375 C 151.671875 -324.734375 156.347656 -323.703125 161.890625 -321.640625 C 167.441406 -319.578125 173.066406 -316.878906 178.765625 -313.546875 C 184.472656 -310.222656 189.703125 -306.582031 194.453125 -302.625 C 199.210938 -298.664062 202.859375 -294.941406 205.390625 -291.453125 C 201.910156 -287.960938 197.316406 -283.128906 191.609375 -276.953125 C 185.898438 -270.773438 180.351562 -264.273438 174.96875 -257.453125 C 169.582031 -250.640625 164.671875 -244.222656 160.234375 -238.203125 C 155.796875 -232.179688 152.941406 -227.898438 151.671875 -225.359375 C 147.867188 -225.992188 144.539062 -227.65625 141.6875 -230.34375 C 138.832031 -233.039062 137.40625 -235.660156 137.40625 -238.203125 Z M 137.40625 -238.203125 "/></g></g></g><g fill="#ffffff" fill-opacity="1"><g transform="translate(1044.840635, 520.444081)"><g><path d="M 74.171875 -182.09375 C 72.585938 -184 71.160156 -188.039062 69.890625 -194.21875 C 68.617188 -200.40625 67.984375 -205.71875 67.984375 -210.15625 C 76.234375 -209.519531 84.160156 -208.960938 91.765625 -208.484375 C 99.367188 -208.003906 106.34375 -207.609375 112.6875 -207.296875 C 117.4375 -216.804688 122.582031 -226.234375 128.125 -235.578125 C 133.675781 -244.929688 139.066406 -253.488281 144.296875 -261.25 C 149.523438 -269.019531 154.4375 -275.597656 159.03125 -280.984375 C 163.632812 -286.378906 167.203125 -289.867188 169.734375 -291.453125 C 172.898438 -291.453125 176.941406 -290.894531 181.859375 -289.78125 C 186.773438 -288.675781 191.765625 -287.25 196.828125 -285.5 C 201.898438 -283.757812 206.5 -281.9375 210.625 -280.03125 C 214.75 -278.132812 217.601562 -276.238281 219.1875 -274.34375 C 209.675781 -262.289062 201.507812 -251.113281 194.6875 -240.8125 C 187.875 -230.507812 180.507812 -218.703125 172.59375 -205.390625 C 178.925781 -205.390625 185.34375 -205.546875 191.84375 -205.859375 C 198.34375 -206.179688 204.921875 -206.660156 211.578125 -207.296875 C 213.160156 -205.710938 214.425781 -203.726562 215.375 -201.34375 C 216.332031 -198.96875 216.8125 -196.515625 216.8125 -193.984375 C 201.28125 -188.273438 182.421875 -185.101562 160.234375 -184.46875 C 152.304688 -169.257812 145.25 -154.125 139.0625 -139.0625 C 132.882812 -124.007812 127.65625 -109.507812 123.375 -95.5625 C 119.101562 -81.613281 115.773438 -68.457031 113.390625 -56.09375 C 111.015625 -43.738281 109.828125 -32.648438 109.828125 -22.828125 C 109.828125 -8.878906 115.054688 -1.113281 125.515625 0.46875 C 135.023438 -0.789062 144.054688 -3.164062 152.609375 -6.65625 C 161.171875 -10.144531 168.78125 -14.582031 175.4375 -19.96875 C 177.34375 -17.113281 178.453125 -14.738281 178.765625 -12.84375 C 176.867188 -9.988281 173.617188 -6.65625 169.015625 -2.84375 C 164.421875 0.957031 159.429688 4.675781 154.046875 8.3125 C 148.660156 11.957031 143.429688 15.046875 138.359375 17.578125 C 133.285156 20.117188 129.484375 21.550781 126.953125 21.875 C 119.023438 21.550781 111.097656 19.804688 103.171875 16.640625 C 95.242188 13.472656 88.03125 9.507812 81.53125 4.75 C 75.039062 0 69.734375 -5.304688 65.609375 -11.171875 C 61.492188 -17.035156 59.4375 -22.820312 59.4375 -28.53125 C 59.4375 -36.132812 60.460938 -45.71875 62.515625 -57.28125 C 64.578125 -68.851562 67.507812 -81.453125 71.3125 -95.078125 C 75.113281 -108.710938 79.550781 -122.976562 84.625 -137.875 C 89.695312 -152.78125 95.242188 -167.519531 101.265625 -182.09375 Z M 74.171875 -182.09375 "/></g></g></g><g fill="#ffffff" fill-opacity="1"><g transform="translate(1212.200584, 520.444081)"><g><path d="M 216.328125 -196.84375 C 215.054688 -177.1875 211.566406 -160.304688 205.859375 -146.203125 C 200.160156 -132.097656 192 -119.734375 181.375 -109.109375 C 170.757812 -98.492188 157.84375 -88.90625 142.625 -80.34375 C 127.414062 -71.789062 109.671875 -63.550781 89.390625 -55.625 C 89.390625 -53.726562 89.304688 -51.75 89.140625 -49.6875 C 88.984375 -47.625 88.90625 -45.484375 88.90625 -43.265625 C 88.90625 -39.140625 89.222656 -34.859375 89.859375 -30.421875 C 90.492188 -25.984375 91.601562 -21.863281 93.1875 -18.0625 C 94.769531 -14.257812 96.988281 -11.171875 99.84375 -8.796875 C 102.695312 -6.421875 106.34375 -5.234375 110.78125 -5.234375 C 119.34375 -5.234375 127.742188 -7.132812 135.984375 -10.9375 C 144.222656 -14.738281 152.066406 -19.410156 159.515625 -24.953125 C 166.960938 -30.503906 173.9375 -36.53125 180.4375 -43.03125 C 186.9375 -49.53125 192.71875 -55.472656 197.78125 -60.859375 C 200.957031 -58.003906 203.65625 -55.3125 205.875 -52.78125 C 191.601562 -33.757812 175.988281 -17.988281 159.03125 -5.46875 C 142.082031 7.050781 126 15.054688 110.78125 18.546875 C 88.90625 16.003906 71.863281 8 59.65625 -5.46875 C 47.457031 -18.9375 41.359375 -35.179688 41.359375 -54.203125 C 41.359375 -67.191406 43.179688 -80.421875 46.828125 -93.890625 C 50.472656 -107.367188 55.546875 -120.367188 62.046875 -132.890625 C 68.546875 -145.410156 76.148438 -157.21875 84.859375 -168.3125 C 93.578125 -179.40625 102.925781 -189.070312 112.90625 -197.3125 C 122.894531 -205.550781 133.195312 -212.046875 143.8125 -216.796875 C 154.4375 -221.554688 164.976562 -223.9375 175.4375 -223.9375 C 190.019531 -222.03125 203.648438 -213 216.328125 -196.84375 Z M 183.53125 -181.140625 C 174.96875 -179.878906 166.085938 -176.394531 156.890625 -170.6875 C 147.703125 -164.976562 139.066406 -157.367188 130.984375 -147.859375 C 122.898438 -138.359375 115.53125 -127.265625 108.875 -114.578125 C 102.21875 -101.898438 96.988281 -88.269531 93.1875 -73.6875 C 118.539062 -86.375 139.617188 -101.988281 156.421875 -120.53125 C 173.222656 -139.070312 182.257812 -159.273438 183.53125 -181.140625 Z M 183.53125 -181.140625 "/></g></g></g></svg>