<svg xmlns="http://www.w3.org/2000/svg" xmlns:xlink="http://www.w3.org/1999/xlink" width="216" zoomAndPan="magnify" viewBox="0 0 162 42" height="56" preserveAspectRatio="xMidYMid meet" version="1.0"><defs><g/></defs><g fill="#ffffff" fill-opacity="1"><g transform="translate(5.764837, 35.89535)"><g><path d="M 9.9375 1.34375 C 9.789062 0.15625 9.679688 -1.132812 9.609375 -2.53125 C 9.546875 -3.9375 9.515625 -5.25 9.515625 -6.46875 C 9.515625 -8.40625 9.578125 -10.265625 9.703125 -12.046875 C 9.835938 -13.828125 10 -15.691406 10.1875 -17.640625 C 10.375 -19.597656 10.582031 -21.726562 10.8125 -24.03125 C 11.039062 -26.332031 11.242188 -28.988281 11.421875 -32 C 11.796875 -32 12.335938 -31.890625 13.046875 -31.671875 C 13.753906 -31.453125 14.46875 -31.195312 15.1875 -30.90625 C 15.914062 -30.625 16.554688 -30.332031 17.109375 -30.03125 C 17.660156 -29.726562 17.976562 -29.472656 18.0625 -29.265625 C 17.570312 -28.140625 17.128906 -26.65625 16.734375 -24.8125 C 16.347656 -22.976562 16.023438 -20.972656 15.765625 -18.796875 C 15.503906 -16.628906 15.300781 -14.398438 15.15625 -12.109375 C 15.007812 -9.828125 14.9375 -7.6875 14.9375 -5.6875 C 14.9375 -4.757812 14.953125 -3.847656 14.984375 -2.953125 C 15.015625 -2.054688 15.054688 -1.234375 15.109375 -0.484375 C 15.710938 -1.378906 16.410156 -2.65625 17.203125 -4.3125 C 18.003906 -5.976562 18.832031 -7.835938 19.6875 -9.890625 C 20.539062 -11.953125 21.394531 -14.101562 22.25 -16.34375 C 23.101562 -18.59375 23.890625 -20.738281 24.609375 -22.78125 C 25.335938 -24.820312 25.953125 -26.660156 26.453125 -28.296875 C 26.960938 -29.929688 27.320312 -31.164062 27.53125 -32 C 27.90625 -32 28.460938 -31.890625 29.203125 -31.671875 C 29.941406 -31.453125 30.664062 -31.195312 31.375 -30.90625 C 32.082031 -30.625 32.710938 -30.332031 33.265625 -30.03125 C 33.816406 -29.726562 34.117188 -29.472656 34.171875 -29.265625 C 33.679688 -28.140625 33.238281 -26.65625 32.84375 -24.8125 C 32.457031 -22.976562 32.132812 -20.972656 31.875 -18.796875 C 31.613281 -16.628906 31.410156 -14.398438 31.265625 -12.109375 C 31.117188 -9.828125 31.046875 -7.6875 31.046875 -5.6875 C 31.046875 -4.84375 31.050781 -4.007812 31.0625 -3.1875 C 31.082031 -2.363281 31.117188 -1.617188 31.171875 -0.953125 C 32.097656 -3.359375 33.0625 -5.738281 34.0625 -8.09375 C 35.0625 -10.457031 36.050781 -12.71875 37.03125 -14.875 C 38.019531 -17.03125 38.976562 -19.039062 39.90625 -20.90625 C 40.832031 -22.769531 41.6875 -24.429688 42.46875 -25.890625 C 43.25 -27.359375 43.925781 -28.566406 44.5 -29.515625 C 45.082031 -30.472656 45.535156 -31.113281 45.859375 -31.4375 C 46.523438 -31.351562 47.210938 -31.113281 47.921875 -30.71875 C 48.628906 -30.332031 49.257812 -29.832031 49.8125 -29.21875 C 48.96875 -28.550781 48.007812 -27.457031 46.9375 -25.9375 C 45.863281 -24.425781 44.765625 -22.671875 43.640625 -20.671875 C 42.515625 -18.671875 41.378906 -16.539062 40.234375 -14.28125 C 39.085938 -12.03125 38.019531 -9.832031 37.03125 -7.6875 C 36.050781 -5.539062 35.175781 -3.539062 34.40625 -1.6875 C 33.644531 0.15625 33.0625 1.644531 32.65625 2.78125 C 31.90625 3.125 31.164062 3.296875 30.4375 3.296875 C 29.507812 3.179688 28.632812 2.945312 27.8125 2.59375 C 26.988281 2.25 26.398438 1.832031 26.046875 1.34375 C 25.960938 0.882812 25.890625 0.34375 25.828125 -0.28125 C 25.773438 -0.90625 25.734375 -1.519531 25.703125 -2.125 C 25.671875 -2.738281 25.648438 -3.328125 25.640625 -3.890625 C 25.628906 -4.453125 25.625 -4.9375 25.625 -5.34375 C 25.625 -7.914062 25.722656 -10.539062 25.921875 -13.21875 C 26.128906 -15.894531 26.375 -18.769531 26.65625 -21.84375 C 25.988281 -19.875 25.25 -17.757812 24.4375 -15.5 C 23.632812 -13.238281 22.789062 -11 21.90625 -8.78125 C 21.019531 -6.570312 20.117188 -4.460938 19.203125 -2.453125 C 18.296875 -0.441406 17.410156 1.300781 16.546875 2.78125 C 15.796875 3.125 15.054688 3.296875 14.328125 3.296875 C 13.398438 3.179688 12.523438 2.945312 11.703125 2.59375 C 10.878906 2.25 10.289062 1.832031 9.9375 1.34375 Z M 9.9375 1.34375 "/></g></g></g><g fill="#ffffff" fill-opacity="1"><g transform="translate(47.139816, 35.89535)"><g><path d="M 19.75 -17.984375 C 19.632812 -16.179688 19.316406 -14.632812 18.796875 -13.34375 C 18.273438 -12.0625 17.53125 -10.9375 16.5625 -9.96875 C 15.59375 -9 14.410156 -8.125 13.015625 -7.34375 C 11.628906 -6.5625 10.007812 -5.804688 8.15625 -5.078125 C 8.15625 -4.898438 8.148438 -4.71875 8.140625 -4.53125 C 8.128906 -4.34375 8.125 -4.148438 8.125 -3.953125 C 8.125 -3.578125 8.148438 -3.1875 8.203125 -2.78125 C 8.265625 -2.375 8.367188 -1.992188 8.515625 -1.640625 C 8.660156 -1.296875 8.863281 -1.015625 9.125 -0.796875 C 9.382812 -0.585938 9.71875 -0.484375 10.125 -0.484375 C 10.90625 -0.484375 11.671875 -0.65625 12.421875 -1 C 13.171875 -1.34375 13.882812 -1.769531 14.5625 -2.28125 C 15.25 -2.789062 15.890625 -3.335938 16.484375 -3.921875 C 17.078125 -4.515625 17.601562 -5.0625 18.0625 -5.5625 C 18.351562 -5.300781 18.597656 -5.050781 18.796875 -4.8125 C 17.492188 -3.082031 16.066406 -1.644531 14.515625 -0.5 C 12.972656 0.644531 11.507812 1.375 10.125 1.6875 C 8.125 1.457031 6.566406 0.726562 5.453125 -0.5 C 4.335938 -1.726562 3.78125 -3.210938 3.78125 -4.953125 C 3.78125 -6.140625 3.945312 -7.347656 4.28125 -8.578125 C 4.613281 -9.804688 5.078125 -10.992188 5.671875 -12.140625 C 6.265625 -13.285156 6.957031 -14.363281 7.75 -15.375 C 8.539062 -16.382812 9.394531 -17.265625 10.3125 -18.015625 C 11.226562 -18.773438 12.171875 -19.367188 13.140625 -19.796875 C 14.109375 -20.234375 15.066406 -20.453125 16.015625 -20.453125 C 17.347656 -20.273438 18.59375 -19.453125 19.75 -17.984375 Z M 16.765625 -16.546875 C 15.984375 -16.429688 15.171875 -16.113281 14.328125 -15.59375 C 13.484375 -15.070312 12.691406 -14.375 11.953125 -13.5 C 11.222656 -12.632812 10.550781 -11.625 9.9375 -10.46875 C 9.332031 -9.3125 8.859375 -8.066406 8.515625 -6.734375 C 10.828125 -7.890625 12.75 -9.3125 14.28125 -11 C 15.820312 -12.695312 16.648438 -14.546875 16.765625 -16.546875 Z M 16.765625 -16.546875 "/></g></g></g><g fill="#ffffff" fill-opacity="1"><g transform="translate(64.679685, 35.89535)"><g><path d="M 8.203125 0.296875 C 9.535156 -0.597656 10.835938 -1.742188 12.109375 -3.140625 C 13.390625 -4.546875 14.550781 -6.066406 15.59375 -7.703125 C 16.632812 -9.335938 17.515625 -11.035156 18.234375 -12.796875 C 18.960938 -14.566406 19.457031 -16.265625 19.71875 -17.890625 C 19.71875 -18.234375 19.53125 -18.460938 19.15625 -18.578125 C 18.75 -18.578125 18.1875 -18.222656 17.46875 -17.515625 C 16.757812 -16.804688 15.976562 -15.898438 15.125 -14.796875 C 14.28125 -13.703125 13.414062 -12.472656 12.53125 -11.109375 C 11.644531 -9.753906 10.835938 -8.398438 10.109375 -7.046875 C 9.390625 -5.703125 8.773438 -4.441406 8.265625 -3.265625 C 7.765625 -2.097656 7.484375 -1.15625 7.421875 -0.4375 C 7.128906 -0.4375 6.882812 -0.722656 6.6875 -1.296875 C 6.625 -1.441406 6.519531 -1.59375 6.375 -1.75 C 6.238281 -1.914062 6.007812 -2.113281 5.6875 -2.34375 C 5.539062 -2.457031 5.394531 -2.59375 5.25 -2.75 C 5.101562 -2.914062 5.003906 -3.054688 4.953125 -3.171875 C 4.835938 -3.398438 4.78125 -3.773438 4.78125 -4.296875 C 4.78125 -6.003906 4.992188 -7.925781 5.421875 -10.0625 C 5.859375 -12.207031 6.429688 -14.394531 7.140625 -16.625 C 7.847656 -18.851562 8.679688 -21.046875 9.640625 -23.203125 C 10.597656 -25.359375 11.585938 -27.332031 12.609375 -29.125 C 13.640625 -30.925781 14.675781 -32.445312 15.71875 -33.6875 C 16.757812 -34.9375 17.742188 -35.765625 18.671875 -36.171875 C 18.960938 -36.085938 19.3125 -35.941406 19.71875 -35.734375 C 20.125 -35.535156 20.523438 -35.304688 20.921875 -35.046875 C 21.328125 -34.785156 21.710938 -34.523438 22.078125 -34.265625 C 22.441406 -34.003906 22.710938 -33.769531 22.890625 -33.5625 C 19.703125 -30.988281 16.941406 -27.679688 14.609375 -23.640625 C 12.273438 -19.597656 10.375 -14.828125 8.90625 -9.328125 C 9.71875 -10.835938 10.628906 -12.296875 11.640625 -13.703125 C 12.648438 -15.109375 13.65625 -16.34375 14.65625 -17.40625 C 15.65625 -18.476562 16.609375 -19.332031 17.515625 -19.96875 C 18.429688 -20.601562 19.191406 -20.921875 19.796875 -20.921875 C 20.265625 -20.804688 20.710938 -20.601562 21.140625 -20.3125 C 21.578125 -20.03125 21.96875 -19.675781 22.3125 -19.25 C 22.664062 -18.832031 22.957031 -18.382812 23.1875 -17.90625 C 23.414062 -17.425781 23.5625 -16.925781 23.625 -16.40625 C 23.59375 -15.195312 23.378906 -13.90625 22.984375 -12.53125 C 22.597656 -11.15625 22.078125 -9.800781 21.421875 -8.46875 C 20.773438 -7.132812 20.039062 -5.859375 19.21875 -4.640625 C 18.394531 -3.429688 17.523438 -2.367188 16.609375 -1.453125 C 15.691406 -0.546875 14.773438 0.179688 13.859375 0.734375 C 12.953125 1.285156 12.097656 1.5625 11.296875 1.5625 C 10.941406 1.5625 10.582031 1.523438 10.21875 1.453125 C 9.863281 1.378906 9.53125 1.273438 9.21875 1.140625 C 8.914062 1.015625 8.671875 0.878906 8.484375 0.734375 C 8.296875 0.585938 8.203125 0.441406 8.203125 0.296875 Z M 8.203125 0.296875 "/></g></g></g><g fill="#ffffff" fill-opacity="1"><g transform="translate(85.171807, 35.89535)"><g><path d="M 19.1875 -17.28125 C 19.164062 -16.726562 19.070312 -16.15625 18.90625 -15.5625 C 18.75 -14.96875 18.554688 -14.429688 18.328125 -13.953125 C 18.097656 -13.484375 17.847656 -13.085938 17.578125 -12.765625 C 17.316406 -12.441406 17.070312 -12.28125 16.84375 -12.28125 C 16.53125 -12.3125 16.34375 -12.53125 16.28125 -12.9375 C 16.28125 -13.019531 16.316406 -13.15625 16.390625 -13.34375 C 16.460938 -13.539062 16.539062 -13.753906 16.625 -13.984375 C 16.71875 -14.210938 16.800781 -14.441406 16.875 -14.671875 C 16.945312 -14.910156 16.984375 -15.113281 16.984375 -15.28125 C 16.984375 -15.6875 16.882812 -16.023438 16.6875 -16.296875 C 16.5 -16.578125 16.25 -16.71875 15.9375 -16.71875 C 14.78125 -16.71875 13.894531 -15.992188 13.28125 -14.546875 C 12.675781 -13.097656 12.375 -10.96875 12.375 -8.15625 C 12.375 -7.875 12.390625 -7.703125 12.421875 -7.640625 C 13.023438 -7.671875 13.566406 -7.691406 14.046875 -7.703125 C 14.523438 -7.722656 14.992188 -7.734375 15.453125 -7.734375 C 15.484375 -7.671875 15.5 -7.550781 15.5 -7.375 C 15.5 -7.113281 15.441406 -6.925781 15.328125 -6.8125 C 14.660156 -6.664062 14.128906 -6.539062 13.734375 -6.4375 C 13.347656 -6.34375 13.050781 -6.25 12.84375 -6.15625 C 12.644531 -6.070312 12.523438 -5.976562 12.484375 -5.875 C 12.441406 -5.78125 12.421875 -5.644531 12.421875 -5.46875 C 12.421875 -5.238281 12.425781 -5.003906 12.4375 -4.765625 C 12.457031 -4.535156 12.46875 -4.25 12.46875 -3.90625 C 12.46875 -1.476562 11.804688 0.472656 10.484375 1.953125 C 9.171875 3.429688 7.34375 4.285156 5 4.515625 C 4.59375 4.484375 4.171875 4.363281 3.734375 4.15625 C 3.296875 3.957031 2.878906 3.695312 2.484375 3.375 C 2.097656 3.0625 1.757812 2.707031 1.46875 2.3125 C 1.1875 1.925781 0.988281 1.53125 0.875 1.125 C 0.875 0.03125 1.101562 -1.015625 1.5625 -2.015625 C 2.03125 -3.015625 2.660156 -3.894531 3.453125 -4.65625 C 4.242188 -5.425781 5.179688 -6.050781 6.265625 -6.53125 C 7.359375 -7.007812 8.539062 -7.289062 9.8125 -7.375 C 9.8125 -8.101562 9.738281 -8.8125 9.59375 -9.5 C 9.445312 -10.195312 9.296875 -10.867188 9.140625 -11.515625 C 8.984375 -12.171875 8.832031 -12.8125 8.6875 -13.4375 C 8.539062 -14.0625 8.46875 -14.675781 8.46875 -15.28125 C 8.46875 -16.0625 8.625 -16.835938 8.9375 -17.609375 C 9.257812 -18.378906 9.679688 -19.085938 10.203125 -19.734375 C 10.722656 -20.390625 11.328125 -20.945312 12.015625 -21.40625 C 12.710938 -21.875 13.441406 -22.191406 14.203125 -22.359375 C 14.515625 -22.273438 14.9375 -22.019531 15.46875 -21.59375 C 16.007812 -21.175781 16.539062 -20.707031 17.0625 -20.1875 C 17.582031 -19.664062 18.046875 -19.132812 18.453125 -18.59375 C 18.859375 -18.0625 19.101562 -17.625 19.1875 -17.28125 Z M 4.859375 2.515625 C 5.554688 2.222656 6.210938 1.800781 6.828125 1.25 C 7.453125 0.707031 7.992188 0.0859375 8.453125 -0.609375 C 8.921875 -1.304688 9.289062 -2.046875 9.5625 -2.828125 C 9.84375 -3.609375 9.984375 -4.375 9.984375 -5.125 C 9.410156 -5.039062 8.773438 -4.769531 8.078125 -4.3125 C 7.378906 -3.863281 6.722656 -3.328125 6.109375 -2.703125 C 5.503906 -2.085938 5 -1.445312 4.59375 -0.78125 C 4.195312 -0.113281 4 0.460938 4 0.953125 C 4 1.585938 4.285156 2.109375 4.859375 2.515625 Z M 4.859375 2.515625 "/></g></g></g><g fill="#ffffff" fill-opacity="1"><g transform="translate(100.193574, 35.89535)"><g><path d="M 4.25 -2.90625 C 4.25 -3.164062 4.269531 -3.488281 4.3125 -3.875 C 4.363281 -4.269531 4.445312 -4.789062 4.5625 -5.4375 C 4.675781 -6.09375 4.828125 -6.882812 5.015625 -7.8125 C 5.203125 -8.738281 5.441406 -9.851562 5.734375 -11.15625 C 5.785156 -11.445312 5.910156 -11.910156 6.109375 -12.546875 C 6.316406 -13.179688 6.585938 -13.851562 6.921875 -14.5625 C 7.253906 -15.269531 7.660156 -15.957031 8.140625 -16.625 C 8.617188 -17.289062 9.191406 -17.785156 9.859375 -18.109375 C 10.347656 -17.992188 11 -17.695312 11.8125 -17.21875 C 12.625 -16.738281 13.316406 -16.078125 13.890625 -15.234375 C 13.222656 -14.484375 12.664062 -13.734375 12.21875 -12.984375 C 11.769531 -12.234375 11.363281 -11.453125 11 -10.640625 C 10.644531 -9.828125 10.3125 -8.984375 10 -8.109375 C 9.695312 -7.242188 9.359375 -6.335938 8.984375 -5.390625 C 8.671875 -4.578125 8.382812 -3.742188 8.125 -2.890625 C 7.863281 -2.035156 7.71875 -1.289062 7.6875 -0.65625 C 7.6875 -0.132812 7.675781 0.234375 7.65625 0.453125 C 7.644531 0.671875 7.566406 0.78125 7.421875 0.78125 C 7.304688 0.78125 7.070312 0.707031 6.71875 0.5625 C 6.375 0.414062 6.019531 0.191406 5.65625 -0.109375 C 5.300781 -0.410156 4.976562 -0.789062 4.6875 -1.25 C 4.394531 -1.71875 4.25 -2.269531 4.25 -2.90625 Z M 12.546875 -21.75 C 12.546875 -21.925781 12.585938 -22.1875 12.671875 -22.53125 C 12.535156 -22.675781 12.414062 -22.894531 12.3125 -23.1875 C 12.207031 -23.476562 12.15625 -23.738281 12.15625 -23.96875 C 12.15625 -24.226562 12.191406 -24.582031 12.265625 -25.03125 C 12.335938 -25.476562 12.429688 -25.960938 12.546875 -26.484375 C 12.660156 -27.003906 12.804688 -27.546875 12.984375 -28.109375 C 13.160156 -28.679688 13.332031 -29.195312 13.5 -29.65625 C 13.851562 -29.65625 14.28125 -29.5625 14.78125 -29.375 C 15.289062 -29.1875 15.804688 -28.941406 16.328125 -28.640625 C 16.847656 -28.335938 17.320312 -28.003906 17.75 -27.640625 C 18.1875 -27.273438 18.523438 -26.9375 18.765625 -26.625 C 18.441406 -26.300781 18.019531 -25.859375 17.5 -25.296875 C 16.976562 -24.734375 16.46875 -24.140625 15.96875 -23.515625 C 15.476562 -22.890625 15.03125 -22.300781 14.625 -21.75 C 14.226562 -21.195312 13.972656 -20.804688 13.859375 -20.578125 C 13.503906 -20.640625 13.195312 -20.789062 12.9375 -21.03125 C 12.675781 -21.28125 12.546875 -21.519531 12.546875 -21.75 Z M 12.546875 -21.75 "/></g></g></g><g fill="#ffffff" fill-opacity="1"><g transform="translate(110.439629, 35.89535)"><g><path d="M 6.78125 -16.625 C 6.632812 -16.800781 6.5 -17.171875 6.375 -17.734375 C 6.257812 -18.296875 6.203125 -18.78125 6.203125 -19.1875 C 6.960938 -19.132812 7.6875 -19.082031 8.375 -19.03125 C 9.070312 -18.988281 9.710938 -18.957031 10.296875 -18.9375 C 10.722656 -19.800781 11.191406 -20.660156 11.703125 -21.515625 C 12.210938 -22.367188 12.703125 -23.148438 13.171875 -23.859375 C 13.648438 -24.566406 14.097656 -25.164062 14.515625 -25.65625 C 14.941406 -26.15625 15.269531 -26.476562 15.5 -26.625 C 15.789062 -26.625 16.160156 -26.570312 16.609375 -26.46875 C 17.054688 -26.363281 17.507812 -26.234375 17.96875 -26.078125 C 18.4375 -25.921875 18.859375 -25.753906 19.234375 -25.578125 C 19.609375 -25.398438 19.867188 -25.222656 20.015625 -25.046875 C 19.148438 -23.953125 18.40625 -22.929688 17.78125 -21.984375 C 17.15625 -21.046875 16.484375 -19.972656 15.765625 -18.765625 C 16.335938 -18.765625 16.921875 -18.773438 17.515625 -18.796875 C 18.109375 -18.828125 18.710938 -18.875 19.328125 -18.9375 C 19.472656 -18.789062 19.585938 -18.609375 19.671875 -18.390625 C 19.753906 -18.171875 19.796875 -17.945312 19.796875 -17.71875 C 18.378906 -17.195312 16.660156 -16.90625 14.640625 -16.84375 C 13.910156 -15.457031 13.265625 -14.078125 12.703125 -12.703125 C 12.140625 -11.328125 11.660156 -10 11.265625 -8.71875 C 10.878906 -7.445312 10.578125 -6.25 10.359375 -5.125 C 10.140625 -4 10.03125 -2.984375 10.03125 -2.078125 C 10.03125 -0.804688 10.507812 -0.0976562 11.46875 0.046875 C 12.332031 -0.0664062 13.15625 -0.28125 13.9375 -0.59375 C 14.71875 -0.914062 15.410156 -1.328125 16.015625 -1.828125 C 16.191406 -1.566406 16.296875 -1.347656 16.328125 -1.171875 C 16.148438 -0.910156 15.851562 -0.601562 15.4375 -0.25 C 15.019531 0.09375 14.5625 0.429688 14.0625 0.765625 C 13.570312 1.097656 13.09375 1.378906 12.625 1.609375 C 12.164062 1.835938 11.820312 1.96875 11.59375 2 C 10.875 1.96875 10.148438 1.804688 9.421875 1.515625 C 8.703125 1.222656 8.046875 0.859375 7.453125 0.421875 C 6.859375 -0.00390625 6.367188 -0.484375 5.984375 -1.015625 C 5.609375 -1.554688 5.421875 -2.085938 5.421875 -2.609375 C 5.421875 -3.296875 5.515625 -4.164062 5.703125 -5.21875 C 5.898438 -6.28125 6.171875 -7.429688 6.515625 -8.671875 C 6.859375 -9.921875 7.257812 -11.226562 7.71875 -12.59375 C 8.1875 -13.957031 8.695312 -15.300781 9.25 -16.625 Z M 6.78125 -16.625 "/></g></g></g><g fill="#ffffff" fill-opacity="1"><g transform="translate(125.721887, 35.89535)"><g><path d="M 19.75 -17.984375 C 19.632812 -16.179688 19.316406 -14.632812 18.796875 -13.34375 C 18.273438 -12.0625 17.53125 -10.9375 16.5625 -9.96875 C 15.59375 -9 14.410156 -8.125 13.015625 -7.34375 C 11.628906 -6.5625 10.007812 -5.804688 8.15625 -5.078125 C 8.15625 -4.898438 8.148438 -4.71875 8.140625 -4.53125 C 8.128906 -4.34375 8.125 -4.148438 8.125 -3.953125 C 8.125 -3.578125 8.148438 -3.1875 8.203125 -2.78125 C 8.265625 -2.375 8.367188 -1.992188 8.515625 -1.640625 C 8.660156 -1.296875 8.863281 -1.015625 9.125 -0.796875 C 9.382812 -0.585938 9.71875 -0.484375 10.125 -0.484375 C 10.90625 -0.484375 11.671875 -0.65625 12.421875 -1 C 13.171875 -1.34375 13.882812 -1.769531 14.5625 -2.28125 C 15.25 -2.789062 15.890625 -3.335938 16.484375 -3.921875 C 17.078125 -4.515625 17.601562 -5.0625 18.0625 -5.5625 C 18.351562 -5.300781 18.597656 -5.050781 18.796875 -4.8125 C 17.492188 -3.082031 16.066406 -1.644531 14.515625 -0.5 C 12.972656 0.644531 11.507812 1.375 10.125 1.6875 C 8.125 1.457031 6.566406 0.726562 5.453125 -0.5 C 4.335938 -1.726562 3.78125 -3.210938 3.78125 -4.953125 C 3.78125 -6.140625 3.945312 -7.347656 4.28125 -8.578125 C 4.613281 -9.804688 5.078125 -10.992188 5.671875 -12.140625 C 6.265625 -13.285156 6.957031 -14.363281 7.75 -15.375 C 8.539062 -16.382812 9.394531 -17.265625 10.3125 -18.015625 C 11.226562 -18.773438 12.171875 -19.367188 13.140625 -19.796875 C 14.109375 -20.234375 15.066406 -20.453125 16.015625 -20.453125 C 17.347656 -20.273438 18.59375 -19.453125 19.75 -17.984375 Z M 16.765625 -16.546875 C 15.984375 -16.429688 15.171875 -16.113281 14.328125 -15.59375 C 13.484375 -15.070312 12.691406 -14.375 11.953125 -13.5 C 11.222656 -12.632812 10.550781 -11.625 9.9375 -10.46875 C 9.332031 -9.3125 8.859375 -8.066406 8.515625 -6.734375 C 10.828125 -7.890625 12.75 -9.3125 14.28125 -11 C 15.820312 -12.695312 16.648438 -14.546875 16.765625 -16.546875 Z M 16.765625 -16.546875 "/></g></g></g></svg>